<svg width="186" height="186" fill="none" xmlns="http://www.w3.org/2000/svg"><g clip-path="url(#clip0_24_236)" fill="#6CEEC7"><path opacity=".6" d="M73.448 8.09L8.108 73.43c-10.805 10.803-10.805 28.32 0 39.123l65.34 65.341c10.803 10.804 28.32 10.804 39.123 0l65.341-65.341c10.804-10.803 10.803-28.32 0-39.123L112.571 8.09c-10.803-10.805-28.32-10.805-39.123 0z"/><path opacity=".8" d="M39.868 173.926a8.771 8.771 0 01-6.257-2.586l-19.055-19.055a8.834 8.834 0 01-2.594-6.257 8.837 8.837 0 012.594-6.257l19.055-19.055a8.845 8.845 0 0112.514 0l19.055 19.055a8.85 8.85 0 012.594 6.257 8.843 8.843 0 01-2.594 6.257L46.125 171.34a8.77 8.77 0 01-6.257 2.586zm0-54.296a7.233 7.233 0 00-5.171 2.121l-19.055 19.055a7.315 7.315 0 000 10.342l19.055 19.055a7.318 7.318 0 0010.342 0l19.055-19.055a7.317 7.317 0 000-10.342L45.04 121.751a7.225 7.225 0 00-5.17-2.069v-.052z"/></g><defs><clipPath id="clip0_24_236"><path fill="#fff" d="M0 0h186v186H0z"/></clipPath></defs></svg>