<svg width="220" height="174" fill="none" xmlns="http://www.w3.org/2000/svg"><g clip-path="url(#clip0_24_228)" fill="#6CEEC7"><path d="M147.34 17.579l-28.746 28.694c-4.746 4.738-4.746 12.42 0 17.158l28.746 28.694c4.746 4.738 12.441 4.738 17.188 0l28.746-28.694c4.746-4.738 4.746-12.42 0-17.158L164.528 17.58c-4.747-4.738-12.442-4.738-17.188 0z"/><path opacity=".4" d="M68.818 7.59L7.604 68.696c-10.128 10.109-10.128 26.499 0 36.608l61.214 61.105c10.127 10.11 26.546 10.11 36.673 0l61.215-61.105c10.127-10.109 10.127-26.5 0-36.608L105.491 7.59c-10.127-10.109-26.546-10.109-36.673 0z"/></g><defs><clipPath id="clip0_24_228"><path fill="#fff" d="M0 0h220v174H0z"/></clipPath></defs></svg>